<svg id="Layer_1" data-name="Layer 1" xmlns="http://www.w3.org/2000/svg" viewBox="0 0 264.12 287.29"><defs><style>.cls-1{fill:#321d3c;}.cls-2{fill:#d8c362;}.cls-3{fill:none;}</style></defs><title>space city logo final</title><path class="cls-1" d="M135.44,257.25c.39,1.65.73,3.17,1.11,4.68a5.31,5.31,0,0,0,4.31,4.14c1.27.28,2.58.39,3.87.57a2.12,2.12,0,0,1,.85.23c-1,.15-2,.29-3,.46-4.21.71-5.78,2.26-6.57,6.46-.17.91-.3,1.82-.56,2.76-.1-.6-.17-1.21-.29-1.8-.2-1-.38-2-.64-3a5.46,5.46,0,0,0-4.29-4.08c-1.56-.35-3.15-.58-4.75-.87,1.29-.18,2.59-.31,3.87-.55,3.24-.58,4.81-2.14,5.46-5.38C135,259.75,135.21,258.57,135.44,257.25Z"/><path class="cls-1" d="M30.74,243.45q5.94-.27,11.88-.52c5.86-.25,11.72-.5,17.59-.71,1.08,0,2.54-.22,2.57,1.37s-1.38,1.67-2.62,1.61l-29.49-1.45Z"/><path class="cls-1" d="M231.46,243.45q-5.94-.27-11.88-.52c-5.86-.25-11.72-.5-17.58-.71-1.09,0-2.55-.22-2.58,1.37s1.38,1.67,2.62,1.61l29.49-1.45Z"/><path class="cls-2" d="M35.73,78c-.67.12-1.24.24-1.82.33a3.75,3.75,0,0,0-3.34,3.14c-.29,1.31-.41,2.66-.59,4a1.45,1.45,0,0,1-.23.71c-.07-.78-.11-1.56-.21-2.33s-.24-1.5-.4-2.24c-.46-2.23-2-3.17-4.13-3.41-.35,0-.71-.1-1.22-.18l2.51-.56a3.14,3.14,0,0,0,2.48-2.18c.39-1.4.59-2.86.86-4.3a10.54,10.54,0,0,0,.09-1.13h.19a19.11,19.11,0,0,0,.21,2.4,28,28,0,0,0,.93,3.37,2.77,2.77,0,0,0,2.09,1.79Z"/><path class="cls-2" d="M18.71,130.4l-.44.09a1,1,0,0,0-.81.9c-.07.38-.09.76-.14,1.14a.54.54,0,0,1-.05.21c0-.23,0-.45-.06-.67s-.05-.43-.09-.64a1.08,1.08,0,0,0-1-1l-.3,0,.61-.16a.81.81,0,0,0,.6-.62c.09-.4.14-.82.21-1.23,0-.11,0-.22,0-.33h0a5.21,5.21,0,0,0,.05.69,7.45,7.45,0,0,0,.22,1,.72.72,0,0,0,.51.52Z"/><path class="cls-2" d="M85.91,86.21c-.67.12-1.24.24-1.82.32a3.76,3.76,0,0,0-3.34,3.15c-.29,1.31-.41,2.65-.6,4a1.37,1.37,0,0,1-.22.72c-.07-.78-.11-1.56-.22-2.33s-.24-1.5-.39-2.24c-.47-2.23-2-3.17-4.13-3.41-.36,0-.71-.11-1.22-.18,1-.21,1.73-.38,2.51-.57A3.12,3.12,0,0,0,79,83.48c.39-1.41.6-2.86.86-4.3a10.73,10.73,0,0,0,.1-1.14h.19a17.41,17.41,0,0,0,.21,2.41,26.27,26.27,0,0,0,.93,3.37,2.74,2.74,0,0,0,2.08,1.79Z"/><path class="cls-2" d="M103.73,74.4c-.47.09-.87.17-1.28.23a2.64,2.64,0,0,0-2.35,2.21c-.2.92-.28,1.87-.41,2.8a1,1,0,0,1-.16.51c0-.55-.08-1.1-.15-1.64s-.17-1.05-.28-1.58a3,3,0,0,0-2.9-2.4c-.25,0-.5-.07-.86-.12L97.1,74a2.18,2.18,0,0,0,1.74-1.53c.28-1,.42-2,.61-3a7,7,0,0,0,.06-.8h.14a13.44,13.44,0,0,0,.14,1.69,19.35,19.35,0,0,0,.66,2.37A1.93,1.93,0,0,0,101.92,74Z"/><path class="cls-2" d="M178.63,82.57l-1,.18a2.09,2.09,0,0,0-1.85,1.74c-.16.73-.23,1.47-.33,2.21a.8.8,0,0,1-.12.4c0-.43-.07-.87-.12-1.29s-.14-.83-.22-1.24a2.34,2.34,0,0,0-2.29-1.9l-.68-.1,1.39-.31a1.74,1.74,0,0,0,1.38-1.2c.21-.78.33-1.59.47-2.39a4.34,4.34,0,0,0,.05-.63h.11a10,10,0,0,0,.12,1.34,15.06,15.06,0,0,0,.51,1.86,1.54,1.54,0,0,0,1.16,1Z"/><path class="cls-2" d="M196,90.74c-.67.12-1.24.24-1.82.32a3.75,3.75,0,0,0-3.34,3.15c-.29,1.3-.4,2.65-.59,4a1.35,1.35,0,0,1-.23.71c-.07-.77-.11-1.55-.21-2.33s-.24-1.49-.39-2.23c-.47-2.24-2-3.17-4.14-3.42-.35,0-.71-.1-1.21-.18.94-.21,1.73-.37,2.5-.56A3.11,3.11,0,0,0,189.09,88c.39-1.4.59-2.86.86-4.29a10.73,10.73,0,0,0,.09-1.14h.19a21.18,21.18,0,0,0,.21,2.4,26.31,26.31,0,0,0,.94,3.37,2.74,2.74,0,0,0,2.08,1.79Z"/><path class="cls-2" d="M254.87,155.18c-.79.14-1.46.28-2.15.38a4.44,4.44,0,0,0-3.94,3.72c-.35,1.54-.48,3.13-.71,4.7a1.5,1.5,0,0,1-.26.85c-.08-.92-.13-1.84-.25-2.76s-.29-1.76-.47-2.64c-.55-2.64-2.38-3.74-4.88-4-.42-.05-.84-.12-1.44-.21,1.12-.25,2-.45,3-.67a3.68,3.68,0,0,0,2.92-2.57c.46-1.66.7-3.38,1-5.07a12.08,12.08,0,0,0,.11-1.35H248a20.53,20.53,0,0,0,.25,2.84,32.11,32.11,0,0,0,1.1,4,3.25,3.25,0,0,0,2.46,2.12Z"/><path class="cls-2" d="M254.87,126.71c-.53.1-1,.19-1.45.26a3,3,0,0,0-2.66,2.51c-.23,1-.32,2.12-.47,3.18a1.15,1.15,0,0,1-.18.56c-.06-.62-.09-1.24-.17-1.85s-.2-1.2-.32-1.79c-.37-1.78-1.6-2.52-3.29-2.72-.29,0-.57-.08-1-.14.75-.17,1.38-.3,2-.45a2.5,2.5,0,0,0,2-1.73c.31-1.12.47-2.28.68-3.43a6.84,6.84,0,0,0,.08-.91h.15a15.22,15.22,0,0,0,.17,1.92,22.78,22.78,0,0,0,.74,2.69,2.21,2.21,0,0,0,1.66,1.42Z"/><path class="cls-2" d="M249.17,88.49c-.56.1-1,.2-1.52.27a3.11,3.11,0,0,0-2.78,2.62c-.24,1.09-.34,2.21-.5,3.32a1.09,1.09,0,0,1-.18.6c-.06-.65-.1-1.3-.18-1.94s-.2-1.25-.33-1.87c-.39-1.86-1.68-2.64-3.45-2.85-.29,0-.59-.08-1-.15.79-.17,1.44-.31,2.09-.47a2.59,2.59,0,0,0,2.06-1.81c.33-1.17.5-2.38.72-3.58.06-.31,0-.63.08-.95h.16a14.71,14.71,0,0,0,.17,2,22.46,22.46,0,0,0,.78,2.81A2.3,2.3,0,0,0,247,88Z"/><path class="cls-2" d="M84.52,41.17l-1,.18a2.15,2.15,0,0,0-1.9,1.79c-.16.74-.23,1.5-.33,2.26a.85.85,0,0,1-.13.41c0-.45-.07-.89-.12-1.33s-.14-.85-.23-1.27a2.37,2.37,0,0,0-2.34-1.94c-.21,0-.41-.05-.69-.1.53-.12,1-.21,1.42-.32a1.76,1.76,0,0,0,1.4-1.23c.23-.8.34-1.63.49-2.44a4.62,4.62,0,0,0,0-.65h.11a12.45,12.45,0,0,0,.12,1.37,18,18,0,0,0,.53,1.91,1.57,1.57,0,0,0,1.18,1Z"/><path class="cls-2" d="M167.68,32l-1,.18A2.13,2.13,0,0,0,164.75,34c-.17.74-.23,1.5-.34,2.26a.76.76,0,0,1-.13.41c0-.45-.06-.89-.12-1.33s-.13-.85-.22-1.27a2.38,2.38,0,0,0-2.35-1.94l-.69-.1,1.43-.32a1.77,1.77,0,0,0,1.4-1.23c.22-.8.34-1.63.49-2.44,0-.21,0-.43.05-.65h.11a8.94,8.94,0,0,0,.12,1.37,14.24,14.24,0,0,0,.53,1.91,1.56,1.56,0,0,0,1.18,1Z"/><path class="cls-3" d="M120.15,177.54C108.7,177,97.24,176.38,85.78,176l-9.4-.32c10.71,7.22,23.29,12.25,37.57,15a112.32,112.32,0,0,0,52.77-2.38,97.3,97.3,0,0,0,27.93-12.83c-15.53.63-31.05,1.4-46.57,2.19"/><path class="cls-3" d="M74.12,121.52h-3.3v.4h3.27Z"/><path class="cls-3" d="M71.05,139.54l0,.35h3.54v-.35Z"/><path class="cls-3" d="M111.26,137.14l.48,0,.11-2.68-.59-.07Z"/><path class="cls-3" d="M142.63,55.1a6,6,0,0,0,.85,1.59l.6,0a18,18,0,0,0,.92-3.35c.2-2.65.24-5.3.28-8A8.16,8.16,0,0,0,145,42.9c-1.41-4.37-2.88-8.73-4.2-12.7,0,4.51-.23,9.41.07,14.27A88.34,88.34,0,0,0,142.63,55.1Z"/><path class="cls-3" d="M67.24,165.74q-.26-21.11-.53-42.21c0-1.91,0-3.83-.08-5.74,0-1.26.47-1.89,1.76-1.85q7.26.16,14.5.31c1.12,0,1.46.65,1.46,1.64l.09,23.1c0,2.16,0,4.32,0,6.65l-2.84-.3c-1-.11-1.46.25-1.45,1.33,0,5.84,0,11.68,0,17.52a6,6,0,0,0,.42,1.44l.55,0a12.13,12.13,0,0,0,.34-2.06c0-4.67,0-9.34,0-14,0-2.7.11-2.88,2.72-2.45,2,.33,4,.72,6,1,1.26.21,1.43,1.07,1.43,2.11v7.46l.49,0c0-.5.11-1,.11-1.5,0-5.46,0-10.93-.08-16.38,0-2.25.76-3.57,2.88-4.32s4.06-1.7,6.08-2.57l-.21-.58-8.21,3.33c-.71-1.43-.3-2.24.78-2.73,2.5-1.16,5-2.32,7.55-3.39,1.53-.65,2.2-.22,2.26,1.48.14,3.77.15,7.54.24,11.31,0,1.91.18,3.82.21,5.73,0,1.39.4,2.88-1,4-.24.2-.24.79-.24,1.2,0,3.29,0,6.59,0,9.88,0,.78,0,1.7,1.09,1.49a2,2,0,0,0,1.21-1.44c.11-2.17,0-4.35,0-6.52s.15-2.33,2.24-2.06c1.43.2,1.32-.79,1.34-1.58.08-3.45.07-6.9.12-10.35.07-4.41.2-8.81.23-13.22,0-1.35.36-2.17,1.88-2.07,1.23.08,1.14-.85,1.17-1.63q.26-9.55.51-19.11c.11-3.72.23-7.43.37-11.15a2.85,2.85,0,0,1,.69-1.77,19.23,19.23,0,0,1,.32,2c.14,2.17.22,4.35.36,6.52,0,.41,0,1,.29,1.19,1.4,1,1.16,2.39,1.18,3.74q.22,23.49.46,47c0,.49.09,1,.14,1.48h.51c0-.61.15-1.22.15-1.83q0-28.92,0-57.85,0-16.8-.17-33.61a6.73,6.73,0,0,1,1.6-4.83c2.89-3.26,3.06-7.36,3.33-11.39.06-.94.1-1.89.13-2.84h0c-.63.15-1.28.31-1.94.43a124.25,124.25,0,0,0-25.06,7.2A94.88,94.88,0,0,0,66.11,70.8C54.78,81.29,47.63,93.31,44.86,106.51c-2.71,12.9-1.61,25.07,3.25,36.38q0-3.39,0-6.79c0-1.94.56-2.42,2.41-1.92,3.58,1,7.15,2,10.74,3A2.13,2.13,0,0,1,63,139.52c0,3.82.1,7.65.24,11.47,0,1.26-.43,1.73-1.66,1.67-2-.1-4-.17-6-.17-1,0-1.58.17-1.88.65.39.59.8,1.18,1.22,1.77.23-.59.75-.82,1.65-.78,2.07.1,4.15.08,6.21.18s2.39.38,2.4,2.46c0,3.19,0,6.37,0,9.56,0,.1,0,.21,0,.31.52.51,1.06,1,1.6,1.49a1,1,0,0,0,.24-.35A7,7,0,0,0,67.24,165.74Z"/><path class="cls-3" d="M199.37,158.72l.39,0V132.83h-.62C198.65,141.46,199.68,150.09,199.37,158.72Z"/><path class="cls-3" d="M57.41,157.51v.42h2.39v-.42Z"/><path class="cls-3" d="M70.56,133v.36H74.7V133Z"/><path class="cls-3" d="M53.81,168.9h.6a12.53,12.53,0,0,0,.35-2.18c0-.53,0-1.06,0-1.59-.47-.53-.92-1.06-1.37-1.59,0,1.3,0,2.6,0,3.89A6.08,6.08,0,0,0,53.81,168.9Z"/><path class="cls-1" d="M221.54,140c-2.53.61-5,1.28-7.55,1.94s-2.62.85-2.63,3.38c0,5.15,0,10.29,0,15.44a66.21,66.21,0,0,0,12.44-20.78A3.06,3.06,0,0,0,221.54,140Z"/><path class="cls-1" d="M55.57,152.49c2,0,4,.07,6,.17,1.23.06,1.7-.41,1.66-1.67-.14-3.82-.23-7.65-.24-11.47a2.13,2.13,0,0,0-1.79-2.38c-3.59-1-7.16-2-10.74-3-1.85-.5-2.41,0-2.41,1.92q0,3.41,0,6.79a63.74,63.74,0,0,0,5.58,10.25C54,152.66,54.56,152.49,55.57,152.49Z"/><path class="cls-1" d="M124.69,62c0,.08.11.17.17.25a8.69,8.69,0,0,0,9.43-6.78,18,18,0,0,0,.66-4.23q.06-17.58,0-35.16a60,60,0,0,0-.76-6.52l-.42,0c-.43,1.35-.85,2.71-1.3,4.05-1.95,5.89-4.16,11.7-5.79,17.67C123.88,41.36,124.77,51.73,124.69,62Z"/><path class="cls-1" d="M148.42,62.54c1.11.07,1.6-.22,1.42-1.4-.16-1-.16-2-.28-3-1.5-12.29-5-24.06-9.24-35.63-.34-.93-.81-1.81-1.22-2.72l-.41.08v3.79c0,9.61-.07,19.22,0,28.83C138.78,58.49,142.47,62.17,148.42,62.54ZM140.77,30.2c1.32,4,2.79,8.33,4.2,12.7a8.16,8.16,0,0,1,.31,2.51c0,2.66-.08,5.31-.28,8a18,18,0,0,1-.92,3.35l-.6,0a6,6,0,0,1-.85-1.59,88.34,88.34,0,0,1-1.79-10.63C140.54,39.61,140.77,34.71,140.77,30.2Z"/><path class="cls-1" d="M137,18.33l-.3-.09v7.43l.3,0Z"/><path class="cls-1" d="M225.49,169.07c11.29-11.73,17.56-25.2,19-40.7h0c.11-.59.12-2.31.14-7.84,0-2.37,0-8-.11-8.78a.75.75,0,0,0,0-.16c-.54-9.86-4.07-19.62-10.78-29.82L232.52,80l.42,2.11A12.21,12.21,0,0,0,234,85.3c5.07,9.85,7.69,19.39,8,29.15,0,.38.32,9.43-.06,12-.34,2.3-.71,4.39-1.13,6.39-2.38,11.26-7.91,21.68-16.43,31l-.18.2a87.31,87.31,0,0,1-12.13,10.82c-9.06,6.73-20.13,12.54-33.47,17.57-9.47,3.58-19.59,5.65-28.23,7.2-.65.12-1.28.29-1.89.45l-.85.22-.39.1.23,1.09h.34l.83,0,.85,0a7.26,7.26,0,0,0,1-.06l.54-.06c2.69-.32,5.47-.66,8.17-1.11a163,163,0,0,0,35.19-9.94,8.45,8.45,0,0,1,2.95-.58c6.13-.17,12.36-.32,18.38-.47l11.36-.28c1.14,0,2.28-.11,3.39-.18l1.56-.1.41,0,0-1-28.9-1.53a115,115,0,0,0,16-11.5C221.69,172.83,223.66,171,225.49,169.07Z"/><path class="cls-3" d="M124.16,88l-1.51.66c0,2.12,0,4.25,0,6.37,0,11.21.14,22.41.24,33.62q0,6.69.13,13.39l.62-.22q.22-24.19.44-48.39C124.12,91.62,124.14,89.81,124.16,88Z"/><path class="cls-3" d="M116.64,91.28c-7.4,3.22-15,6.53-22.42,9.82-16.53,7.31-29.72,14.54-41.51,22.75-5.79,4-12.38,8.84-17.4,15a24.59,24.59,0,0,0-2.87,4.34,7.35,7.35,0,0,0-.77,5.84c.61,1.72,2.11,3.12,4.45,4.17,5.22,2.34,10.74,2.67,15.45,2.69a149.58,149.58,0,0,0,15.54-.8q-.19-15.8-.4-31.59c0-1.91,0-3.83-.08-5.74,0-1.26.47-1.89,1.76-1.85q7.26.16,14.5.31c1.12,0,1.46.65,1.46,1.64l.09,23.1c0,2.16,0,4.32,0,6.65l-2.84-.3c-1-.11-1.46.25-1.45,1.33v4.62l1.31-.23c0-.52,0-1,0-1.55,0-2.7.11-2.88,2.72-2.45,2,.33,4,.72,6,1a1.46,1.46,0,0,1,1.29,1l.74-.16c0-3,0-6.06-.08-9.09,0-2.25.76-3.57,2.88-4.32s4.06-1.7,6.08-2.57l-.21-.58-8.21,3.33c-.71-1.43-.3-2.24.78-2.73,2.5-1.16,5-2.32,7.55-3.39,1.53-.65,2.2-.22,2.26,1.48.14,3.77.15,7.54.24,11.31,0,1.26.1,2.52.15,3.79,1.61-.43,3.21-.88,4.82-1.35,0-.7,0-1.4,0-2.1.07-4.41.2-8.81.23-13.22,0-1.35.36-2.17,1.88-2.07,1.23.08,1.14-.85,1.17-1.63q.26-9.55.51-19.11c.11-3.72.23-7.43.37-11.15a2.85,2.85,0,0,1,.69-1.77,19.23,19.23,0,0,1,.32,2c.14,2.17.22,4.35.36,6.52,0,.41,0,1,.29,1.19,1.4,1,1.16,2.39,1.18,3.74q.18,17.69.35,35.37l.91-.3q0-23.13,0-46.26Q116.66,94.63,116.64,91.28Z"/><path class="cls-3" d="M171.87,161.58c.07.3.48.78.63.75.34-.08.82-.39.88-.68a14.24,14.24,0,0,0,.27-2.84q-.12-14.88-.29-29.76l-2.06,1q.19,14.75.38,29.5A10.71,10.71,0,0,0,171.87,161.58Z"/><path class="cls-3" d="M157.54,147.6a1.57,1.57,0,0,1-1.58,1.92,5.81,5.81,0,0,0-1.43.54l.06.56c.91.11,1.82.28,2.73.32,2.12.09,4.25.14,6.37.15,1.39,0,2,.52,1.94,2-.11,3.66-.06,7.33-.07,11a4.53,4.53,0,0,0,0,1.43,6.45,6.45,0,0,0,.84,1.31c.25-.42.71-.84.72-1.27.08-2,.05-4,0-6.05,0-2.71-.07-5.41-.06-8.12,0-1-.13-1.72-1.3-2a1.7,1.7,0,0,1-1-1.26c-.16-5-.29-9.93-.34-14.89l-.34.16q-3.31,1.53-6.7,3,.06,4.8.1,9.59C157.54,146.54,157.5,147.08,157.54,147.6Z"/><path class="cls-3" d="M143.65,149.16l.42.07a4.26,4.26,0,0,0,.35-1c.12-2,.28-3.93.28-5.89v-.47l-1.42.58c.08,1.73.16,3.46.22,5.19C143.52,148.15,143.6,148.65,143.65,149.16Z"/><path class="cls-3" d="M111.26,137.14l.48,0,.11-2.68-.59-.07Z"/><path class="cls-3" d="M74.12,121.52h-3.3v.4h3.27Z"/><path class="cls-3" d="M135.23,160.7a6.73,6.73,0,0,0,3,0c.24,0,.43-1,.42-1.5-.05-4.92-.13-9.85-.2-14.77l-3.51,1.38q-.08,6.48-.14,13C134.76,159.43,134.92,160.62,135.23,160.7Z"/><path class="cls-3" d="M71.05,139.54l0,.35h3.54v-.35Z"/><path class="cls-3" d="M70.56,133v.36H74.7V133Z"/><path class="cls-3" d="M123.54,150l-.2.08.16.25C123.51,150.25,123.53,150.14,123.54,150Z"/><path class="cls-3" d="M199.37,158.72l.39,0V132.83h-.62C198.65,141.46,199.68,150.09,199.37,158.72Z"/><path class="cls-3" d="M224.06,68.24a46.13,46.13,0,0,0-12.36-1.47l1.17.1a36.82,36.82,0,0,1,9.79,2.3c5,1.94,7.06,5.57,6,10.81a14.72,14.72,0,0,0,.88-3.53C230.1,72,228.35,69.37,224.06,68.24Z"/><path class="cls-3" d="M15.49,149.93c0,.08-.05.16-.07.24a5.75,5.75,0,0,0,.71,4.9q-.13-.3-.24-.6A9.15,9.15,0,0,1,15.49,149.93Z"/><path class="cls-3" d="M80.56,167.63l.55,0a12.13,12.13,0,0,0,.34-2.06c0-1,0-1.94,0-2.91l-1.32.28v3.3A6,6,0,0,0,80.56,167.63Z"/><path class="cls-3" d="M36.48,126.28a92.25,92.25,0,0,0-9.83,7.57c.52-.43,1-.86,1.56-1.26,4.71-3.75,9.63-7.2,14.59-10.4C40.67,123.51,38.55,124.87,36.48,126.28Z"/><path class="cls-3" d="M102.45,165.15c0,.78,0,1.7,1.09,1.49a2,2,0,0,0,1.21-1.44c.11-2.17,0-4.35,0-6.52s.15-2.33,2.24-2.06c1.28.18,1.33-.59,1.34-1.32q-2.93,1-5.87,1.84C102.44,159.81,102.45,162.48,102.45,165.15Z"/><path class="cls-3" d="M116,157.64h.51c0-.61.15-1.22.15-1.83v-3.36l-.83.29,0,3.41C115.9,156.65,116,157.14,116,157.64Z"/><path class="cls-1" d="M185,104.4c0-2.78,0-2.79-2.72-2.78h-6.53c-2.29,0-2.68.39-2.66,2.7q.06,7.14.14,14.27,6.08-3.51,11.77-7.19Z"/><path class="cls-1" d="M143.06,134q.13-18.87.56-37.75a7.48,7.48,0,0,1,1.29-3.61c1.16-1.84,2.74-3.41,3.86-5.26a8.54,8.54,0,0,0,1.43-4.11c.07-6.11-.13-12.21-.19-18.32,0-1-.41-1.25-1.34-1.24-4.39,0-7.72,2.18-9.21,6.29a17.7,17.7,0,0,0-1.1,5.11c-.24,5-.37,10.08-.36,15.12q.06,21.91.29,43.82c0,.68,0,1.36,0,2.05q2.37-1,4.75-2.08Z"/><path class="cls-1" d="M156.86,87.7c0-1.15-.82-2.3-1.3-3.43s-1.33-2.14-1.41-3.26c-.44-5.6-.75-11.22-1-16.84-.06-1.64-.82-2.73-2.09-4.05.17,12.83.41,25.33.49,37.84.07,10.68,0,21.36,0,32q2.91-1.41,5.74-2.83Q157.13,107.43,156.86,87.7Z"/><path class="cls-1" d="M125.39,28c-1.12,2.56-2.74,5-3.19,7.72a59.11,59.11,0,0,0-.61,8.11l.66,0h.35l.2,1.12-.39.09-.86.2c0,1-.07,1.9-.13,2.84-.27,4-.44,8.13-3.33,11.39a6.73,6.73,0,0,0-1.6,4.83c.07,7.52.11,19.39.14,26.92l.09,0-.08,0q0,3.34,0,6.69,0,23.13,0,46.26,3.18-1,6.36-2.19-.08-6.69-.13-13.39c-.1-11.21-.28-22.41-.24-33.62,0-2.12,0-4.25,0-6.37l-.55.24.51-.24s-.42-27,.63-38.53c.46-5,.93-10,1.5-15.05.28-2.44.82-4.86,1.27-7.49C125.69,27.81,125.45,27.89,125.39,28Z"/><path class="cls-1" d="M90.12,150.09c-2-.31-4-.7-6-1-2.61-.43-2.75-.25-2.72,2.45,0,.51,0,1,0,1.55,3.18-.57,6.49-1.23,10-2A1.46,1.46,0,0,0,90.12,150.09Z"/><path class="cls-1" d="M114.25,105.42c-.25-.18-.27-.78-.29-1.19-.14-2.17-.22-4.35-.36-6.52a19.23,19.23,0,0,0-.32-2,2.85,2.85,0,0,0-.69,1.77c-.14,3.72-.26,7.43-.37,11.15q-.27,9.56-.51,19.11c0,.78.06,1.71-1.17,1.63-1.52-.1-1.87.72-1.88,2.07,0,4.41-.16,8.81-.23,13.22,0,.7,0,1.4,0,2.1q3.68-1.06,7.37-2.26-.18-17.68-.35-35.37C115.41,107.81,115.65,106.38,114.25,105.42Zm-2.51,31.74-.48,0v-2.73l.59.07Z"/><path class="cls-1" d="M124.16,88c0,1.81,0,3.62,0,5.43q-.23,24.19-.44,48.39c3.76-1.36,7.52-2.81,11.31-4.38q.28-26.22.53-52.45a94.65,94.65,0,0,0-.57-11.29c-.67-6-3.11-8.75-8.34-9.8-2-.41-2.16-.33-2.18,1.8-.08,6.2-.15,16.1-.22,22.3"/><path class="cls-1" d="M150.85,130.36,150.2,88.7l-.59-.16c-1.68,2.22-4.15,4-4.54,7a68.35,68.35,0,0,0-.49,9c0,9.56,0,19.11.09,28.67,1.07-.49,2.14-1,3.21-1.49S149.87,130.83,150.85,130.36Z"/><path class="cls-1" d="M81.6,147.34l2.84.3c0-2.33,0-4.49,0-6.65l-.09-23.1c0-1-.34-1.62-1.46-1.64q-7.24-.14-14.5-.31c-1.29,0-1.8.59-1.76,1.85.07,1.91.06,3.83.08,5.74q.2,15.79.4,31.59c4.15-.43,8.47-1,13-1.83v-4.62C80.14,147.59,80.61,147.23,81.6,147.34ZM70.82,121.52h3.3l0,.4H70.82Zm.25,18.37,0-.35H74.6v.35Zm-.51-6.49V133H74.7v.36Z"/><path class="cls-1" d="M103.2,133c-.06-1.7-.73-2.13-2.26-1.48-2.54,1.07-5,2.23-7.55,3.39-1.08.49-1.49,1.3-.78,2.73l8.21-3.33.21.58c-2,.87-4,1.84-6.08,2.57s-2.93,2.07-2.88,4.32c.07,3,.08,6.06.08,9.09,1.25-.27,2.51-.56,3.8-.86q3.83-.88,7.64-1.91c0-1.27-.12-2.53-.15-3.79C103.35,140.58,103.34,136.81,103.2,133Z"/><path class="cls-3" d="M36.25,125.94c-2.32,1.58-4.75,3.31-7.13,5.25.07.35.15.69.23,1,2.75-2.16,5.58-4.22,8.44-6.19,0-.36-.07-.71-.09-1.07C37.21,125.29,36.72,125.61,36.25,125.94Z"/><path class="cls-3" d="M35,138.61a27.29,27.29,0,0,0-2.59,3.8,63.7,63.7,0,0,0,3.33,7.19c1,1.74,2,3.44,3.06,5.09a37.46,37.46,0,0,0,9.72,1.58,67.52,67.52,0,0,1-9.38-22.16A53.57,53.57,0,0,0,35,138.61Z"/><path class="cls-3" d="M18.27,142.79A25.77,25.77,0,0,0,15,150.06c-.84,3,.27,5.63,3.3,7.72.53.36,1.08.7,1.63,1a9.4,9.4,0,0,1-3.67-4.46c-.89-2.43-.57-5.29,1-8.49,2.45-5.17,6.43-9,10.19-12.08-.06-.34-.11-.67-.17-1A49.85,49.85,0,0,0,18.27,142.79Z"/><path class="cls-3" d="M31.27,149.2a6.65,6.65,0,0,0,2.43,3.11A61.91,61.91,0,0,1,31,146.39,6.11,6.11,0,0,0,31.27,149.2Z"/><path class="cls-3" d="M224.17,67.84A49.89,49.89,0,0,0,206,66.68l.36.3q3.3,0,6.48.3a36,36,0,0,1,9.68,2.29c5.13,2,7,5.79,5.54,11.36a19.87,19.87,0,0,1-1.32,3.56,17.56,17.56,0,0,0,3.27-8C230.55,71.78,228.7,69,224.17,67.84Z"/><path class="cls-1" d="M214.07,76a16.79,16.79,0,0,0-5.91-2.36q2.13,2.2,4.08,4.58t3.81,5c.13-.39.26-.78.38-1.18C217.21,79.43,216.51,77.62,214.07,76Z"/><path class="cls-1" d="M44.45,106.42C47.3,92.84,54.64,80.86,65.82,70.49A95.08,95.08,0,0,1,94.37,52.54a126,126,0,0,1,25.15-7.22c.94-.18,1.86-.42,2.8-.63l-.07-.38a25.21,25.21,0,0,0-2.75,0,107.92,107.92,0,0,0-29.09,7.31c-16.36,6.7-29.5,16.36-39,29.13S37.19,106.88,37.49,121.1Q40.14,119.54,43,118A68.07,68.07,0,0,1,44.45,106.42Z"/><path class="cls-1" d="M227.38,126.29c-1.44,13.19-7.13,25.17-16.73,35.83-11.24,12.49-25.84,21.45-43.82,26.6a112.35,112.35,0,0,1-53,2.38c-20.36-4-37.33-12.45-50.5-25.61-2.38.34-4.67.64-6.88.88A91.71,91.71,0,0,0,73.86,180.6c20,12.83,43,18.46,68.43,17.12A113.26,113.26,0,0,0,187.51,186c14.38-7.19,25.83-16.8,34-28.87,11.4-16.83,14.65-34.74,9.37-53.45A70,70,0,0,0,227.42,94c-1.21,1.18-2.46,2.31-3.72,3.41A60.6,60.6,0,0,1,227.38,126.29Z"/><path class="cls-1" d="M37.79,126c1.74-1.2,3.49-2.36,5.25-3.5,0-.32,0-.64,0-1q-2.68,1.67-5.31,3.4C37.72,125.33,37.75,125.68,37.79,126Z"/><path class="cls-1" d="M48.5,156.27c1,0,2.08.06,3.06.07,1.27,0,2.55,0,3.83-.05a61.12,61.12,0,0,1-11.58-26.35c-1.6,1.31-3.18,2.7-4.69,4.17A67.52,67.52,0,0,0,48.5,156.27Z"/><path class="cls-1" d="M203.37,67l2.21,0h.77l-.36-.3C205.13,66.77,204.26,66.87,203.37,67Z"/><path class="cls-1" d="M203,64.4a107.54,107.54,0,0,0-16.1-9.81c-10.48-5.25-21.95-8.35-34-10.12-1.44-.21-2.94-.17-4.41-.24l-.07.41c1,.24,2.06.5,3.1.71a138,138,0,0,1,20.49,5.52,101,101,0,0,1,26.71,14.38l.81-.16C200.73,64.85,201.88,64.62,203,64.4Z"/><path class="cls-1" d="M32.39,142.41c-.11.21-.22.41-.32.62A9.93,9.93,0,0,0,31,146.39a61.91,61.91,0,0,0,2.71,5.92,11.18,11.18,0,0,0,2.25,1.3,25.67,25.67,0,0,0,2.83,1.08c-1.08-1.65-2.11-3.35-3.06-5.09A63.7,63.7,0,0,1,32.39,142.41Z"/><path class="cls-1" d="M28.37,127a2.5,2.5,0,0,0-.05-.29,118.37,118.37,0,0,1-.15-12.87,69.58,69.58,0,0,1,5.91-23.63q1.91-4.17,3.85-8.32l-.52-.24c-5.81,9.24-10,18.88-10.79,29.48-.21-.33-.16,13.8.05,17.12l.82-.61Z"/><path class="cls-1" d="M119.14,199.83c-6.39-1.45-12.86-2.69-19.14-4.4a132.32,132.32,0,0,1-29.78-12.68A98.42,98.42,0,0,1,48.94,167c-1.61.1-3.18.17-4.72.21a90,90,0,0,0,11.69,10.68c-2.46-.29-5.15-.11-6.94-.18l-29.69,1.63a.59.59,0,0,0,.52.28c10.91.31,21.81.66,32.71.91,1.3,0,4.74,0,6.84-.09q4.38,3.12,9.28,6l-29.69,1.63a.58.58,0,0,0,.53.28c10.9.32,21.8.66,32.71.92a13.65,13.65,0,0,1,5.26,1,157,157,0,0,0,40.46,10.54c1.58.21,3.21.15,4.82.21l.07-.42C121.57,200.37,120.35,200.11,119.14,199.83Z"/><path class="cls-1" d="M27.26,132.75c.06.34.11.67.17,1l1-.85.88-.68c-.08-.35-.16-.69-.23-1C28.5,131.69,27.88,132.22,27.26,132.75Z"/><path class="cls-1" d="M222.16,177.74a66.48,66.48,0,0,0-7.33.23c17.1-13.18,27.36-29.43,29.27-49.64.09.11.23-17.2,0-16.58-.5-9.6-3.79-18.34-8.77-26.63-.18.25-.37.5-.56.74a68.49,68.49,0,0,1,7.69,28.57c0,.44.32,9.46-.07,12.1-.31,2.15-.68,4.29-1.13,6.42-2.44,11.56-8.08,22-16.71,31.36-12,13-27.92,21.77-45.76,28.5-9,3.41-18.61,5.48-28.31,7.22-.91.17-1.8.44-2.71.67l.08.36a23.77,23.77,0,0,0,2.67,0c2.9-.35,5.81-.69,8.69-1.18a161.17,161.17,0,0,0,35.1-9.91,8.91,8.91,0,0,1,3.1-.61c9.91-.28,19.83-.49,29.74-.75,1.65,0,3.29-.18,4.93-.28v-.24l-29.9-1.59q4.93-2.9,9.33-6c2.06.14,5.78.15,7.13.11,10.91-.25,21.81-.6,32.71-.91a.61.61,0,0,0,.53-.28Z"/><path class="cls-3" d="M15.49,149.93c0,.08-.05.16-.07.24a5.75,5.75,0,0,0,.71,4.9q-.13-.3-.24-.6A9.15,9.15,0,0,1,15.49,149.93Z"/><path class="cls-3" d="M36.48,126.28a92.25,92.25,0,0,0-9.83,7.57c.52-.43,1-.86,1.56-1.26,4.71-3.75,9.63-7.2,14.59-10.4C40.67,123.51,38.55,124.87,36.48,126.28Z"/><path class="cls-3" d="M224.06,68.24a46.13,46.13,0,0,0-12.36-1.47l1.17.1a36.82,36.82,0,0,1,9.79,2.3c5,1.94,7.06,5.57,6,10.81a14.72,14.72,0,0,0,.88-3.53C230.1,72,228.35,69.37,224.06,68.24Z"/><path class="cls-1" d="M62.77,154.31c-2.06-.1-4.14-.08-6.21-.18-.9,0-1.42.19-1.65.78l.7,1c3.08-.08,6.21-.27,9.44-.56C64.83,154.53,64.25,154.37,62.77,154.31Z"/><path class="cls-1" d="M65.16,166.64c0-.1,0-.21,0-.31v-.69l-.91.14Z"/><path class="cls-2" d="M233.75,66.2a23,23,0,0,0-4.8-1.81c-6.49-1.65-13-1-19.53-.06-1.95.28-3.88.67-5.82,1s-3.67.73-5.5,1.09a3.9,3.9,0,0,0,1.92,0c8.17-1.43,16.32-1.77,24.42.36,5,1.33,7.2,4.62,6.6,9.8a19.84,19.84,0,0,1-4.31,9.65c-5.67,7.49-13.07,13.13-20.45,18.78-.09.07-.3,0-.62-.06.6-.52,1.09-.92,1.55-1.36,4.79-4.55,9.66-9,14.31-13.71A20.46,20.46,0,0,0,227,80.67c1.29-5-.14-8.3-4.89-10.13a35.46,35.46,0,0,0-9.4-2.21c-11-1-21.84.4-32.56,2.89-4.6,1.07-9.19,2.18-13.78,3.27,2.94-.15,5.79-.76,8.66-1.19,9.59-1.43,19.2-2.39,28.9-1.36,3.75.4,7.46,1,10.69,3.18,2.74,1.83,3.72,4.1,2.79,7.23a22.36,22.36,0,0,1-2.67,5.86c-4.33,6.52-10.36,11.36-16.58,15.92a295.61,295.61,0,0,1-49.69,29,263.15,263.15,0,0,1-52.22,18.39c-14.71,3.43-29.55,6-44.72,5.9-5.49,0-10.93-.52-16-2.81-5.39-2.41-7-6.78-4.39-12a26.35,26.35,0,0,1,3-4.6c5-6.14,11.27-10.83,17.7-15.31A248.84,248.84,0,0,1,93.62,99.76q11.47-5.07,23-10.06a.45.45,0,0,1,0-.11.08.08,0,0,1,0,0,.93.93,0,0,1,0-.13.25.25,0,0,1,0-.17l0-.08.05,0a1.36,1.36,0,0,1,0-.2.27.27,0,0,1,.05-.15c0-.09,0-.18-.05-.27a376.27,376.27,0,0,0-46.2,19.71C56,115.64,41.88,123.59,29.12,133.73c-4.4,3.51-8.47,7.35-10.94,12.56-2.8,5.91-1.21,10.25,4.72,13,5.28,2.4,10.93,2.91,16.59,3a203.3,203.3,0,0,0,38-3.12l9.27-1.53.1.49c-5,1.08-10,2.28-15,3.2-13.13,2.38-26.34,3.7-39.68,2-5.07-.65-10.06-1.65-14.39-4.63-3.14-2.16-4.75-5.14-3.72-8.86a27.25,27.25,0,0,1,3.38-7.57c4.7-7.13,11.31-12.39,18.26-17.14,5.4-3.68,11.08-6.95,16.48-10.31a9.7,9.7,0,0,0-1,.35,136.63,136.63,0,0,0-23,13.41c-6.81,5-13.07,10.56-17,18.29-3.33,6.59-1.62,12,5,15.25s13.43,3.78,20.42,4.08a153.31,153.31,0,0,0,31.35-2.41,272,272,0,0,0,41.6-10.35,518.75,518.75,0,0,0,54.07-21.33c16.74-7.75,33.33-15.79,48.35-26.67,7.58-5.5,14.91-11.32,20.86-18.65,2.65-3.27,5.07-6.71,5.73-11S237.6,68.16,233.75,66.2Z"/><path class="cls-1" d="M37.35,208.79c.45,0,1,0,1.81.06s1.55.1,2.37.17l2.16.21a5.91,5.91,0,0,1,1.2.23l-.62,4.65H44a3.34,3.34,0,0,0-1.3-2.74,5.66,5.66,0,0,0-3.59-1,5.41,5.41,0,0,0-3,.72,2.39,2.39,0,0,0-1.2,1.86,1.81,1.81,0,0,0,.75,1.72,11.58,11.58,0,0,0,2,1.14l5.75,2.68a6.23,6.23,0,0,1,2.71,2.24,5.91,5.91,0,0,1,.83,3.73,6.26,6.26,0,0,1-2.76,5,12,12,0,0,1-6.9,1.74,17.63,17.63,0,0,1-3.23-.27,12,12,0,0,1-2.48-.73,4.78,4.78,0,0,1-1.58-1,4,4,0,0,1-.28-1.87,8.89,8.89,0,0,1,.41-2.2,5.88,5.88,0,0,1,.85-1.74h.28a5.67,5.67,0,0,0,.67,3,5.9,5.9,0,0,0,2.31,2.34,7.2,7.2,0,0,0,3.69.89,4.88,4.88,0,0,0,3.28-.92,2.7,2.7,0,0,0,1.06-2.09,2.53,2.53,0,0,0-.75-1.78,8,8,0,0,0-2.51-1.6l-5-2.34a6.63,6.63,0,0,1-3.09-2.71,6.26,6.26,0,0,1-.69-3.91,6.09,6.09,0,0,1,1.14-3,5.7,5.7,0,0,1,2.44-1.86A9.36,9.36,0,0,1,37.35,208.79Zm7.6.31-.1.64H40.39v-.64Z"/><path class="cls-1" d="M53.53,211.46h-.09a1.82,1.82,0,0,0-.59-1.36,1.91,1.91,0,0,0-1.38-.57H51.1l0-.31h2.46Zm0,17v2.24H51.07v-.31h.4a1.86,1.86,0,0,0,1.37-.56,2,2,0,0,0,.6-1.37Zm6.21-19.29v21.53h-6.3V209.22Zm3,0a12.2,12.2,0,0,1,4.89.81,5.65,5.65,0,0,1,3.6,5.06,6.74,6.74,0,0,1-.51,3.08,6.24,6.24,0,0,1-1.69,2.31,6.43,6.43,0,0,1-2.48,1.3,6.51,6.51,0,0,1-2.89.13,7.11,7.11,0,0,1-2.92-1.28v-.31a4.77,4.77,0,0,0,1-.27,4.46,4.46,0,0,0,1-.56,3.88,3.88,0,0,0,1-1.06,5.15,5.15,0,0,0,.71-1.74,5.71,5.71,0,0,0,.17-.95,5.45,5.45,0,0,0,0-.89,4.57,4.57,0,0,0-1.07-3,3.56,3.56,0,0,0-2.78-1.1H59.65c-.1-.52-.2-1-.31-1.54Zm-3.14,19.29h.09a2,2,0,0,0,.6,1.37,1.86,1.86,0,0,0,1.37.56h.4v.31H59.65Z"/><path class="cls-1" d="M75.62,228.51a1.38,1.38,0,0,0-.13,1,1.22,1.22,0,0,0,.54.66,1.42,1.42,0,0,0,.75.23h.28v.31H70.2v-.31h.28a2.83,2.83,0,0,0,1.46-.44,3.36,3.36,0,0,0,1.25-1.49Zm6.61-20v4.8l-7.57,17.38H72.17l8-17.6q.15-.27.42-.87l.55-1.31c.19-.47.37-.92.52-1.35a4,4,0,0,0,.26-1.05Zm2.52,15.63v1.54h-8.7v-1.54Zm-2.52-15.63,10.64,22.09H85.49l-5.94-14.21Zm2.37,20h7.26A3.58,3.58,0,0,0,93.12,230a2.74,2.74,0,0,0,1.45.44h.24v.31H83.15v-.31h.28a1.45,1.45,0,0,0,1.09-.5A1.23,1.23,0,0,0,84.6,228.51Z"/><path class="cls-1" d="M116.78,221.77l.73,5.6a7.06,7.06,0,0,1-1.7,1.87,8.44,8.44,0,0,1-2.8,1.4,13.86,13.86,0,0,1-4.14.54,18.13,18.13,0,0,1-7.15-1.34,10.19,10.19,0,0,1-4.66-3.79,12.16,12.16,0,0,1,0-12.11,10.08,10.08,0,0,1,4.61-3.83,18,18,0,0,1,7.26-1.32,21.94,21.94,0,0,1,4.6.43,18.52,18.52,0,0,1,3.31,1l-.31,5.88h-.28a8,8,0,0,0-2.67-4.51,7,7,0,0,0-4.13-1.24,6.66,6.66,0,0,0-3.89,1.13,7.19,7.19,0,0,0-2.47,3.26,13.58,13.58,0,0,0-.87,5.14,15.14,15.14,0,0,0,.8,5.19,7.49,7.49,0,0,0,2.3,3.35,5.85,5.85,0,0,0,3.58,1.24,9,9,0,0,0,4-.73,5.19,5.19,0,0,0,2.31-2.48,19.68,19.68,0,0,0,1.38-4.66Z"/><path class="cls-1" d="M124,211.46h-.09a1.94,1.94,0,0,0-.6-1.36,1.86,1.86,0,0,0-1.37-.57h-.4v-.31H124Zm0,17v2.24h-2.46v-.31h.4a1.85,1.85,0,0,0,1.37-.56,2,2,0,0,0,.6-1.37Zm6.22-19.29v21.53h-6.31V209.22Zm8.61,0v1.57h-8.7v-1.57Zm-1.63,10.15v1.54H130.1v-1.54Zm1,9.81,1.23,1.57H130.1v-1.57Zm2.49-5.56-1.17,7.13h-6.65l1.11-1.57a5.94,5.94,0,0,0,2.76-.66,6.6,6.6,0,0,0,2.23-1.91,8.54,8.54,0,0,0,1.41-3Zm-3.51-7.76v3.57h-3.63v-.06a3.36,3.36,0,0,0,2.4-1,3.15,3.15,0,0,0,.92-2.4v-.13Zm0,5v3.57h-.31v-.16a3.23,3.23,0,0,0-.93-2.38,3.33,3.33,0,0,0-2.39-1v-.06Zm1.63-10.15V215h-.31v-.24a4,4,0,0,0-1-2.91,4,4,0,0,0-2.92-1.09v-.06Zm0-2v.9l-3.75-.34a12.06,12.06,0,0,0,1.43-.09c.5-.07,1-.14,1.4-.22A3.9,3.9,0,0,0,138.8,208.66Z"/><path class="cls-1" d="M174.92,221.77l.74,5.6a7.11,7.11,0,0,1-1.71,1.87,8.44,8.44,0,0,1-2.8,1.4,13.86,13.86,0,0,1-4.14.54,18.13,18.13,0,0,1-7.15-1.34,10.19,10.19,0,0,1-4.66-3.79,12.16,12.16,0,0,1,0-12.11,10.08,10.08,0,0,1,4.61-3.83,18,18,0,0,1,7.26-1.32,21.94,21.94,0,0,1,4.6.43,18.52,18.52,0,0,1,3.31,1l-.31,5.88h-.28a8,8,0,0,0-2.67-4.51,7,7,0,0,0-4.12-1.24,6.67,6.67,0,0,0-3.9,1.13,7.19,7.19,0,0,0-2.47,3.26,13.58,13.58,0,0,0-.86,5.14,14.9,14.9,0,0,0,.8,5.19,7.4,7.4,0,0,0,2.29,3.35,5.85,5.85,0,0,0,3.58,1.24,9,9,0,0,0,4-.73,5.19,5.19,0,0,0,2.31-2.48,19.68,19.68,0,0,0,1.38-4.66Z"/><path class="cls-1" d="M182.12,211.46H182a1.94,1.94,0,0,0-.6-1.36,1.86,1.86,0,0,0-1.37-.57h-.4v-.31h2.47Zm0,17v2.24h-2.47v-.31h.4a1.85,1.85,0,0,0,1.37-.56,2,2,0,0,0,.6-1.37Zm6.21-19.29v21.53H182V209.22Zm-.09,2.24v-2.24h2.46v.31h-.4a1.86,1.86,0,0,0-1.37.57,1.94,1.94,0,0,0-.6,1.36Zm0,17h.09a2,2,0,0,0,.6,1.37,1.85,1.85,0,0,0,1.37.56h.4v.31h-2.46Z"/><path class="cls-1" d="M193.74,208.63a4.85,4.85,0,0,0,.94.25c.42.08.89.15,1.4.22a12.3,12.3,0,0,0,1.42.09l-3.76.34Zm20.89.56v1.54H193.74v-1.54ZM198,210.63v.1a4,4,0,0,0-2.92,1.09,3.94,3.94,0,0,0-1,2.9v.22l-.31,0v-4.34Zm3.11,17.88v2.24h-2.47v-.31h.41a1.84,1.84,0,0,0,1.36-.56,2,2,0,0,0,.6-1.37Zm6.21-19.2v21.44H201V209.31Zm-.09,19.2h.09a2,2,0,0,0,.6,1.37,1.86,1.86,0,0,0,1.37.56h.4v.31h-2.46Zm7.38-17.88V215l-.31,0v-.22a3.68,3.68,0,0,0-4-4v-.1Zm0-2v.9l-3.75-.34a12.06,12.06,0,0,0,1.43-.09c.5-.07,1-.14,1.4-.22A3.9,3.9,0,0,0,214.63,208.63Z"/><path class="cls-1" d="M225.8,211.43l-6.92-.09a4.2,4.2,0,0,0-1.26-1.26,3.22,3.22,0,0,0-1.82-.55h-.43v-.31h11.87v.31h-.37a1.14,1.14,0,0,0-1,.63A1.21,1.21,0,0,0,225.8,211.43Zm-1.23-2.18,6.46,11.6h-6.31l-7.1-11.6Zm.24,19.26v2.24h-2.46v-.31h.4a1.86,1.86,0,0,0,1.37-.56,2,2,0,0,0,.6-1.37Zm6.22-7.66v9.9h-6.31v-9.9Zm4.61-11.6h2.74l-7.75,12.18-1.85-.28Zm-4.7,19.26H231a1.84,1.84,0,0,0,.58,1.37,1.91,1.91,0,0,0,1.39.56h.37v.31h-2.43Zm3.44-17.08a1.12,1.12,0,0,0,.12-.87,1.5,1.5,0,0,0-.44-.74,1.08,1.08,0,0,0-.76-.29h-.37v-.31h7.66v.31h-.43a3.25,3.25,0,0,0-1.8.55,4.36,4.36,0,0,0-1.3,1.26Z"/><path class="cls-2" d="M72.65,238.25h-.06a1.34,1.34,0,0,0-.4-.91,1.22,1.22,0,0,0-.9-.37H71v-.21h1.62Zm0,11.24V251H71v-.2h.26a1.23,1.23,0,0,0,.9-.38,1.34,1.34,0,0,0,.4-.9Zm3-12.73V251h-3V236.76Zm5.6,0v.88H75.57v-.88Zm-1,6.78v.85H75.57v-.85ZM81,250.1l.49.87H75.57v-.87Zm1.48-3.29L81.54,251h-4l.73-.87a3.93,3.93,0,0,0,1.79-.4,3.65,3.65,0,0,0,1.31-1.14,5.86,5.86,0,0,0,.88-1.75Zm-2.23-5.18v2H78.31v0A1.71,1.71,0,0,0,80,241.78v-.15Zm0,2.72v2H80v-.16a1.7,1.7,0,0,0-.48-1.24,1.81,1.81,0,0,0-1.24-.51v0Zm1-7.95V237l-2.47-.23a7.91,7.91,0,0,0,.94-.06c.33,0,.64-.09.92-.14A3,3,0,0,0,81.23,236.4Zm0,1.18V240H81v-.24A2,2,0,0,0,79,237.62v0Z"/><path class="cls-2" d="M86.49,238.25h-.06a1.34,1.34,0,0,0-.4-.91,1.22,1.22,0,0,0-.9-.37h-.26v-.21h1.62Zm0,11.24V251H84.87v-.2h.26a1.23,1.23,0,0,0,.9-.38,1.34,1.34,0,0,0,.4-.9Zm3-12.73V251h-3V236.76Zm-.06,1.49v-1.49H91V237h-.26a1.22,1.22,0,0,0-.9.37,1.3,1.3,0,0,0-.4.91Zm0,11.24h.06a1.29,1.29,0,0,0,.4.9,1.23,1.23,0,0,0,.9.38H91v.2H89.41Z"/><path class="cls-2" d="M95.56,238.25H95.5a1.21,1.21,0,0,0-.39-.91,1.25,1.25,0,0,0-.91-.37H94l0-.21h1.62Zm0,11.24V251H93.94v-.2h.26a1.23,1.23,0,0,0,.9-.38,1.34,1.34,0,0,0,.4-.9Zm3-12.73V251h-3V236.76Zm2.76,0a9.16,9.16,0,0,1,4.14.87,6.21,6.21,0,0,1,2.69,2.45,8.09,8.09,0,0,1,0,7.57,6.3,6.3,0,0,1-2.69,2.46,9.3,9.3,0,0,1-4.14.86H96.47l0-.85h4.61a4.22,4.22,0,0,0,2.51-.76,4.79,4.79,0,0,0,1.63-2.17,10,10,0,0,0,0-6.65,4.71,4.71,0,0,0-1.63-2.16,4.15,4.15,0,0,0-2.51-.76H96.25v-.86Z"/><path class="cls-2" d="M120.07,236.48a9.29,9.29,0,0,1,4.23.9,6.61,6.61,0,0,1,2.78,2.55,8.3,8.3,0,0,1,0,7.86,6.51,6.51,0,0,1-2.78,2.56,10.39,10.39,0,0,1-8.46,0,6.52,6.52,0,0,1-2.77-2.55,8.45,8.45,0,0,1,0-7.86,6.6,6.6,0,0,1,2.77-2.56A9.35,9.35,0,0,1,120.07,236.48Zm0,13.92a4,4,0,0,0,2.48-.8,5.18,5.18,0,0,0,1.6-2.26,10.85,10.85,0,0,0,0-6.94,5.16,5.16,0,0,0-1.6-2.27,4.21,4.21,0,0,0-4.94,0A5.11,5.11,0,0,0,116,240.4a11,11,0,0,0,0,6.94,5.13,5.13,0,0,0,1.62,2.26A3.94,3.94,0,0,0,120.07,250.4Z"/><path class="cls-2" d="M132.23,238.25h-.06a1.34,1.34,0,0,0-.4-.91,1.22,1.22,0,0,0-.9-.37h-.26v-.21h1.62Zm0,11.24V251h-1.62v-.2h.26a1.23,1.23,0,0,0,.9-.38,1.34,1.34,0,0,0,.4-.9Zm3-12.73V251h-3V236.76Zm-.06,1.49v-1.49h1.62V237h-.26a1.22,1.22,0,0,0-.9.37,1.34,1.34,0,0,0-.4.91Zm5.42,11.85.49.87h-5.91v-.87Zm1.48-3.29-.93,4.16h-4l.73-.87a3.93,3.93,0,0,0,1.79-.4,3.76,3.76,0,0,0,1.32-1.14,6.09,6.09,0,0,0,.87-1.75Z"/><path class="cls-2" d="M152.06,236.48a9.35,9.35,0,0,1,4.23.9,6.73,6.73,0,0,1,2.78,2.55,8.37,8.37,0,0,1,0,7.86,6.62,6.62,0,0,1-2.78,2.56,10.41,10.41,0,0,1-8.47,0,6.58,6.58,0,0,1-2.77-2.55,8.45,8.45,0,0,1,0-7.86,6.66,6.66,0,0,1,2.77-2.56A9.36,9.36,0,0,1,152.06,236.48Zm0,13.92a3.93,3.93,0,0,0,2.47-.8,5.18,5.18,0,0,0,1.6-2.26,10.85,10.85,0,0,0,0-6.94,5.16,5.16,0,0,0-1.6-2.27,3.93,3.93,0,0,0-2.47-.8,4,4,0,0,0-2.47.8A5,5,0,0,0,148,240.4a10.85,10.85,0,0,0,0,6.94,5,5,0,0,0,1.61,2.26A4,4,0,0,0,152.06,250.4Z"/><path class="cls-2" d="M164,249.53V251h-1.69v-.2h.39a1.19,1.19,0,0,0,.87-.37,1.16,1.16,0,0,0,.37-.87Zm-.1-13.07,2.92,3.1,0,11.41H164V239a14.22,14.22,0,0,0-.25-2.54Zm0,0,12.94,12.34.25,2.45-13-12.31Zm2.94,13.07a1.19,1.19,0,0,0,.36.87,1.23,1.23,0,0,0,.88.37h.38v.2h-1.68v-1.44Zm5.66-12.77h1.68v1.44h0a1.24,1.24,0,0,0-.37-.88,1.22,1.22,0,0,0-.88-.35h-.39Zm4.53,0v11.9q0,.75.06,1.35c0,.39.1.81.18,1.24h-.18l-3-3.28V236.76Zm1.62,0V237h-.37a1.25,1.25,0,0,0-1.25,1.23H177v-1.44Z"/><path class="cls-2" d="M186.13,236.48c.27,0,.6,0,1,0s.81.06,1.24.11l1.12.14a2.85,2.85,0,0,1,.66.16l-.25,2.74h-.2a2.09,2.09,0,0,0-.78-1.7,3.23,3.23,0,0,0-2.08-.64,3,3,0,0,0-1.9.57,1.84,1.84,0,0,0-.76,1.38,1.42,1.42,0,0,0,.38,1.06,5.05,5.05,0,0,0,1,.83l3.88,2.51a3.74,3.74,0,0,1,1.41,1.38,3.7,3.7,0,0,1,.41,2,4,4,0,0,1-1.52,3.1,6.17,6.17,0,0,1-3.86,1.1,9.85,9.85,0,0,1-1.73-.15,6.55,6.55,0,0,1-1.49-.43,3.25,3.25,0,0,1-1-.65,3,3,0,0,1-.14-1.08,5.74,5.74,0,0,1,.19-1.28,4,4,0,0,1,.44-1.07h.18a3.46,3.46,0,0,0,.38,1.91,3.35,3.35,0,0,0,1.34,1.4,3.94,3.94,0,0,0,2.1.5,3,3,0,0,0,2.07-.68,2.09,2.09,0,0,0,.73-1.59,1.88,1.88,0,0,0-.38-1.14,3.69,3.69,0,0,0-1.23-1l-3.55-2.36a3.78,3.78,0,0,1-1.56-1.56,3.72,3.72,0,0,1-.38-2.07,4,4,0,0,1,.62-1.86,3.55,3.55,0,0,1,1.46-1.24A5,5,0,0,1,186.13,236.48Zm4,.2,0,.43h-2.39v-.43Z"/><path class="cls-3" d="M113.7,190.63a112.32,112.32,0,0,0,52.77-2.38,99.18,99.18,0,0,0,24.44-10.58H79.37A102.58,102.58,0,0,0,113.7,190.63Z"/><path class="cls-1" d="M208.29,131.11c0-1.49-.55-2-2-1.85-2.12.21-4.24.32-6.36.43-2.72.14-3.3.75-3.3,3.52q0,15.93,0,31.86a3.33,3.33,0,0,1-.06,1.42,7.57,7.57,0,0,1-1.23,1.38c-.41-.44-1-.81-1.2-1.33a5.63,5.63,0,0,1-.08-1.89c0-3,0-6.05,0-9.08,0-.91-.08-2-1.34-2-2.28,0-4.57.06-6.84.27a2,2,0,0,0-1.3,1.27,18.36,18.36,0,0,0-.22,3.64c0,2.07.12,4.14.09,6.2a8.77,8.77,0,0,1-.47,2l-.52,0a10.16,10.16,0,0,1-.41-2.06q.09-5.47.3-10.95a4.35,4.35,0,0,1,.5-1.3,10.25,10.25,0,0,0,1-3c.12-4.62.07-9.24.07-13.86V123.28c-3.88,2-7.78,3.92-11.66,5.77q.16,14.88.29,29.76a14.24,14.24,0,0,1-.27,2.84c-.06.29-.54.6-.88.68-.15,0-.56-.45-.63-.75a10.71,10.71,0,0,1-.19-2.05q-.19-14.75-.38-29.5c-2.29,1.09-4.57,2.15-6.83,3.2.05,5,.18,9.93.34,14.89a1.7,1.7,0,0,0,1,1.26c1.17.29,1.3,1,1.3,2,0,2.71.05,5.41.06,8.12,0,2,.05,4,0,6.05,0,.43-.47.85-.72,1.27a6.45,6.45,0,0,1-.84-1.31,4.53,4.53,0,0,1,0-1.43c0-3.66,0-7.33.07-11,0-1.49-.55-2-1.94-2-2.12,0-4.25-.06-6.37-.15-.91,0-1.82-.21-2.73-.32l-.06-.56a5.81,5.81,0,0,1,1.43-.54,1.57,1.57,0,0,0,1.58-1.92c0-.52,0-1.06,0-1.59q0-4.78-.1-9.59-6.26,2.79-12.73,5.45v.47c0,2-.16,3.93-.28,5.89a4.26,4.26,0,0,1-.35,1l-.42-.07c-.05-.51-.13-1-.15-1.52-.06-1.73-.14-3.46-.22-5.19-1.61.65-3.24,1.31-4.87,2,.07,4.92.15,9.85.2,14.77,0,.52-.18,1.46-.42,1.5a6.73,6.73,0,0,1-3,0c-.31-.08-.47-1.27-.47-1.95q.08-6.48.14-13Q129.28,148,123.54,150c0,.11,0,.22,0,.33l-.16-.25c-2.2.79-4.42,1.58-6.65,2.35v3.36c0,.61-.1,1.22-.15,1.83H116c0-.5-.13-1-.14-1.48l0-3.41c-2,.68-4,1.36-5.94,2l-1.61.53c0,.73-.06,1.5-1.34,1.32-2.09-.27-2.26-.06-2.24,2.06s.13,4.35,0,6.52a2,2,0,0,1-1.21,1.44c-1,.21-1.09-.71-1.09-1.49,0-2.67,0-5.34,0-8-7,2.11-14,3.94-21,5.47,0,1,0,1.94,0,2.91a12.13,12.13,0,0,1-.34,2.06l-.55,0a6,6,0,0,1-.42-1.44v-3.3q-6,1.29-12,2.29l-.86.13c0,.15,0,.29,0,.43a7,7,0,0,1-.24,2,1,1,0,0,1-.24.35,86.08,86.08,0,0,0,9.2,7.23H75.8q1.76,1.2,3.57,2.31H190.91c1.15-.7,2.27-1.43,3.37-2.18h.37a86.11,86.11,0,0,0,14-11.81C208.51,152.82,208.37,142,208.29,131.11Zm-8.53,27.59-.39,0c.31-8.63-.72-17.26-.23-25.89h.62Z"/><path class="cls-3" d="M113.7,190.63a112.32,112.32,0,0,0,52.77-2.38,106.69,106.69,0,0,0,10.48-3.6H93.26A110.89,110.89,0,0,0,113.7,190.63Z"/><path class="cls-3" d="M77.78,177.67c-1.07-.68-2.13-1.38-3.17-2.1A87.29,87.29,0,0,1,63,165.87c-2,.29-4,.55-5.84.76a92.13,92.13,0,0,0,16.7,13.55c2.07,1.33,4.18,2.58,6.31,3.75v-4.82C79.35,178.64,78.56,178.16,77.78,177.67Z"/><path class="cls-3" d="M166.7,189.06a113,113,0,0,1-53.16,2.39,110.84,110.84,0,0,1-22.45-6.8H81.46c17.94,9.53,38.27,13.77,60.56,12.59a113.24,113.24,0,0,0,45-11.7c.58-.29,1.15-.59,1.72-.89h-9.64A106.91,106.91,0,0,1,166.7,189.06Z"/><path class="cls-3" d="M122.06,192.78H101.4A120.63,120.63,0,0,0,142,197.24a116.6,116.6,0,0,0,26.58-4.46H148.24A112.37,112.37,0,0,1,122.06,192.78Z"/><path class="cls-3" d="M91.09,184.65a95.12,95.12,0,0,1-11-5.54c-.79-.47-1.58-1-2.36-1.44-1.07-.68-2.13-1.38-3.17-2.1A87.29,87.29,0,0,1,63,165.87c-2,.29-4,.55-5.84.76a92.13,92.13,0,0,0,16.7,13.55c2.07,1.33,4.18,2.58,6.31,3.75l1.32.72A108.18,108.18,0,0,0,95.79,191v-4.45C94.2,185.92,92.63,185.31,91.09,184.65Z"/><path class="cls-2" d="M177,184.65a95.32,95.32,0,0,0,12.46-6.1H80.85a94.65,94.65,0,0,0,12.41,6.1Z"/><path class="cls-2" d="M166.47,188.25c2.72-.78,5.36-1.65,7.94-2.61H95.81a113.88,113.88,0,0,0,17.89,5A112.32,112.32,0,0,0,166.47,188.25Z"/></svg>